<svg width="13" height="14" viewBox="0 0 13 14" fill="none" xmlns="http://www.w3.org/2000/svg">
<path fill-rule="evenodd" clip-rule="evenodd" d="M9.01172 5.41007L9.01175 5.41005L9.01177 5.41003C9.23676 5.19131 9.45973 4.97456 9.67672 4.7578C6.77969 3.1744 3.93726 1.59098 1.09489 0.0075802L1.08123 -3.05176e-05C1.02649 -3.05176e-05 1.02649 0.0546503 1.02649 0.0546503C2.12146 1.17575 3.23011 2.29685 4.33876 3.41795C5.44742 4.53905 6.55607 5.66014 7.65104 6.78124C8.091 6.30513 8.55552 5.85355 9.01172 5.41007ZM0.0401611 13.3438C0.0401611 13.6172 0.149644 13.8906 0.36864 14L0.371358 13.9973L0.371363 13.9973L0.371373 13.9973C2.72461 11.6467 5.02316 9.35069 7.37641 7.16406C5.07699 4.81246 2.77757 2.4609 0.423414 0.109344C0.313899 0.218706 0.204417 0.328068 0.149644 0.437461C0.140249 0.475005 0.130854 0.510937 0.121735 0.545811L0.121735 0.545812C0.0777248 0.714136 0.0401611 0.857803 0.0401611 1.03901V13.125V13.3438ZM1.02649 14C2.12146 12.9062 3.23011 11.8125 4.33876 10.7187C5.44742 9.62498 6.55607 8.53123 7.65104 7.43747C8.20696 7.99278 8.80956 8.54811 9.4588 9.14644L9.62198 9.29684C6.77505 10.8828 3.92816 12.4687 1.08123 14H1.02649ZM8.96319 8.09374C9.30536 8.42186 9.64753 8.74998 10.0034 9.0781C10.8246 8.64062 11.6459 8.20311 12.4123 7.71092C12.5765 7.65626 12.686 7.54691 12.7955 7.43758L12.7955 7.43748C13.0145 7.16405 13.0145 6.89058 12.7955 6.61715C12.6861 6.4531 12.5766 6.34371 12.4123 6.28903C12.1386 6.125 11.8513 5.97464 11.5639 5.82428C11.2764 5.67386 10.9889 5.52343 10.7151 5.35933C10.4961 5.19529 10.2771 5.08589 10.0581 4.97653L7.92297 7.10937C8.27884 7.43749 8.62102 7.76561 8.96319 8.09374Z" fill="white"/>
</svg>
