<svg width="24" height="24" viewBox="0 0 24 24" fill="none" xmlns="http://www.w3.org/2000/svg">
<path d="M20.8692 17.1447C20.5365 17.9133 20.1427 18.6208 19.6864 19.2713C19.0644 20.158 18.5552 20.7719 18.1627 21.1127C17.5544 21.6722 16.9025 21.9587 16.2045 21.975C15.7034 21.975 15.0991 21.8324 14.3957 21.5432C13.69 21.2553 13.0414 21.1127 12.4484 21.1127C11.8264 21.1127 11.1594 21.2553 10.4459 21.5432C9.7313 21.8324 9.15565 21.9832 8.71553 21.9981C8.04618 22.0266 7.37901 21.732 6.71305 21.1127C6.288 20.742 5.75635 20.1064 5.11946 19.2061C4.43613 18.2447 3.87433 17.1297 3.43421 15.8587C2.96285 14.4858 2.72656 13.1563 2.72656 11.8692C2.72656 10.3948 3.04514 9.12321 3.68326 8.0576C4.18476 7.20166 4.85194 6.52647 5.68696 6.03081C6.52198 5.53514 7.42423 5.28256 8.39586 5.2664C8.92751 5.2664 9.6247 5.43085 10.4911 5.75405C11.355 6.07834 11.9098 6.24279 12.153 6.24279C12.3348 6.24279 12.9511 6.0505 13.9958 5.66714C14.9837 5.31162 15.8175 5.16442 16.5006 5.2224C18.3515 5.37178 19.7421 6.10142 20.6669 7.41595C19.0115 8.41896 18.1926 9.82379 18.2089 11.626C18.2238 13.0297 18.7331 14.1979 19.7339 15.1254C20.1875 15.5558 20.694 15.8885 21.2576 16.1248C21.1354 16.4793 21.0063 16.8188 20.8692 17.1447ZM16.6241 0.440125C16.6241 1.54038 16.2222 2.56768 15.421 3.51854C14.4541 4.64892 13.2846 5.30211 12.0164 5.19904C12.0002 5.06705 11.9908 4.92813 11.9908 4.78214C11.9908 3.7259 12.4507 2.59552 13.2672 1.67127C13.6749 1.20331 14.1934 0.814209 14.8221 0.503814C15.4495 0.198051 16.0429 0.0289566 16.6011 0C16.6174 0.147086 16.6241 0.294182 16.6241 0.440111V0.440125Z" fill="white"/>
</svg>
