<svg width="40" height="40" viewBox="0 0 40 40" fill="none" xmlns="http://www.w3.org/2000/svg">
<rect x="0.5" y="0.5" width="39" height="39" rx="19.5" fill="white"/>
<g clip-path="url(#clip0_0_3952)">
<path d="M23.5355 24.9497L20 21.4142L16.4645 24.9497C16.0756 25.3386 15.4392 25.3386 15.0503 24.9497C14.6613 24.5608 14.6613 23.9244 15.0503 23.5355L18.5858 20L15.0503 16.4644C14.6613 16.0755 14.6613 15.4391 15.0503 15.0502C15.4392 14.6613 16.0756 14.6613 16.4645 15.0502L20 18.5857L23.5355 15.0502C23.9244 14.6613 24.5608 14.6613 24.9497 15.0502C25.3387 15.4391 25.3387 16.0755 24.9497 16.4644L21.4142 20L24.9497 23.5355C25.3387 23.9244 25.3387 24.5608 24.9497 24.9497C24.5608 25.3386 23.9244 25.3386 23.5355 24.9497Z" fill="#111111"/>
</g>
<rect x="0.5" y="0.5" width="39" height="39" rx="19.5" stroke="#EDEDED"/>
<defs>
<clipPath id="clip0_0_3952">
<rect width="24" height="24" fill="white" transform="translate(8 8)"/>
</clipPath>
</defs>
</svg>
