<svg width="48" height="49" viewBox="0 0 48 49" fill="none" xmlns="http://www.w3.org/2000/svg">
<path d="M22.8016 23.6055L6.02246 41.1848C6.21087 41.8525 6.54946 42.4684 7.01236 42.9852C7.47526 43.5021 8.0502 43.9063 8.69325 44.1669C9.33629 44.4275 10.0304 44.5376 10.7225 44.4888C11.4146 44.44 12.0865 44.2336 12.6866 43.8854L31.5662 33.1328L22.8016 23.6055Z" fill="#EA4335"/>
<path d="M39.7673 20.6175L31.6028 15.9414L22.4131 24.0059L31.6403 33.1081L39.7423 28.482C40.4601 28.1062 41.0613 27.541 41.4808 26.8479C41.9003 26.1547 42.1221 25.36 42.1221 24.5498C42.1221 23.7395 41.9003 22.9448 41.4808 22.2516C41.0613 21.5585 40.4601 20.9934 39.7423 20.6175H39.7673Z" fill="#FBBC04"/>
<path d="M6.02411 7.82617C5.92268 8.20112 5.87222 8.58803 5.87407 8.97645V40.034C5.87509 40.4223 5.9255 40.8088 6.02411 41.1843L23.3783 24.0551L6.02411 7.82617Z" fill="#4285F4"/>
<path d="M22.9266 24.5049L31.6037 15.9403L12.7491 5.13766C12.0398 4.72224 11.233 4.50222 10.411 4.50001C9.41827 4.49804 8.45209 4.82075 7.65977 5.41893C6.86746 6.01712 6.29247 6.85797 6.02246 7.81332L22.9266 24.5049Z" fill="#34A853"/>
</svg>
