<svg width="24" height="24" viewBox="0 0 24 24" fill="none" xmlns="http://www.w3.org/2000/svg">
<path d="M11.4022 11.5527L3.0127 20.3424C3.1069 20.6763 3.2762 20.9842 3.50764 21.2426C3.73909 21.501 4.02657 21.7031 4.34809 21.8334C4.66961 21.9637 5.01667 22.0188 5.36273 21.9944C5.70879 21.97 6.04469 21.8668 6.34476 21.6927L15.7846 16.3164L11.4022 11.5527Z" fill="#EA4335"/>
<path d="M19.8851 10.0588L15.8029 7.7207L11.208 11.7529L15.8216 16.304L19.8726 13.991C20.2315 13.8031 20.5321 13.5205 20.7419 13.1739C20.9516 12.8274 21.0625 12.43 21.0625 12.0249C21.0625 11.6198 20.9516 11.2224 20.7419 10.8758C20.5321 10.5292 20.2315 10.2467 19.8726 10.0588H19.8851Z" fill="#FBBC04"/>
<path d="M3.01254 3.66309C2.96183 3.85056 2.9366 4.04401 2.93752 4.23823V19.767C2.93803 19.9611 2.96324 20.1544 3.01254 20.3422L11.6897 11.7776L3.01254 3.66309Z" fill="#4285F4"/>
<path d="M11.4648 12.0024L15.8033 7.72015L6.37602 2.31883C6.02136 2.11112 5.61799 2.00111 5.20698 2C4.7106 1.99902 4.22751 2.16037 3.83135 2.45947C3.43519 2.75856 3.1477 3.17899 3.0127 3.65666L11.4648 12.0024Z" fill="#34A853"/>
</svg>
