<svg width="48" height="48" viewBox="0 0 48 48" fill="none" xmlns="http://www.w3.org/2000/svg">
<path d="M41.7384 34.2894C41.073 35.8266 40.2853 37.2416 39.3728 38.5426C38.1289 40.3161 37.1104 41.5437 36.3255 42.2254C35.1087 43.3444 33.8051 43.9175 32.4091 43.9501C31.4069 43.9501 30.1983 43.6649 28.7914 43.0864C27.3799 42.5106 26.0828 42.2254 24.8967 42.2254C23.6528 42.2254 22.3187 42.5106 20.8917 43.0864C19.4626 43.6649 18.3113 43.9664 17.4311 43.9962C16.0924 44.0533 14.758 43.4639 13.4261 42.2254C12.576 41.484 11.5127 40.2129 10.2389 38.4122C8.87225 36.4893 7.74866 34.2595 6.86841 31.7173C5.9257 28.9715 5.45312 26.3126 5.45312 23.7384C5.45312 20.7897 6.09029 18.2464 7.36652 16.1152C8.36953 14.4033 9.70388 13.0529 11.3739 12.0616C13.044 11.0703 14.8485 10.5651 16.7917 10.5328C17.855 10.5328 19.2494 10.8617 20.9822 11.5081C22.7101 12.1567 23.8196 12.4856 24.306 12.4856C24.6696 12.4856 25.9021 12.101 27.9915 11.3343C29.9674 10.6232 31.635 10.3288 33.0011 10.4448C36.703 10.7436 39.4841 12.2028 41.3337 14.8319C38.0229 16.8379 36.3852 19.6476 36.4178 23.2519C36.4477 26.0594 37.4662 28.3957 39.4678 30.2507C40.375 31.1117 41.388 31.7771 42.5151 32.2497C42.2707 32.9585 42.0127 33.6375 41.7384 34.2894V34.2894ZM33.2483 0.880251C33.2483 3.08075 32.4444 5.13536 30.8419 7.03708C28.9082 9.29785 26.5692 10.6042 24.0328 10.3981C24.0004 10.1341 23.9817 9.85625 23.9817 9.56429C23.9817 7.45181 24.9013 5.19103 26.5344 3.34255C27.3498 2.40662 28.3867 1.62842 29.6442 1.00763C30.899 0.396101 32.0859 0.0579132 33.2021 0C33.2347 0.294173 33.2483 0.588364 33.2483 0.880222V0.880251Z" fill="#CACACA"/>
</svg>
