<svg width="24" height="24" viewBox="0 0 24 24" fill="none" xmlns="http://www.w3.org/2000/svg">
<path d="M12.0854 12.97L3.3097 21.72L3.4697 21.8286C3.86398 22.0543 4.3497 22.0572 4.74684 21.8372L15.1797 16.0529L12.0854 12.97Z" fill="white"/>
<path d="M2.83398 20.4286L11.2011 12.0872L2.83398 3.74431V20.4286Z" fill="white"/>
<path d="M20.5168 10.9057L16.4283 8.64003L12.9711 12.0872L16.3168 15.4229L20.5168 13.0943C20.9183 12.8715 21.1668 12.4529 21.1668 12C21.1668 11.5472 20.9183 11.1286 20.5168 10.9057Z" fill="white"/>
<path d="M3.4697 2.17146L3.21684 2.36146L12.0854 11.2043L15.2911 8.0086L4.74684 2.16288C4.3497 1.94288 3.86398 1.94574 3.4697 2.17146Z" fill="white"/>
</svg>
