<svg width="90" height="24" viewBox="0 0 90 24" fill="none" xmlns="http://www.w3.org/2000/svg">
<path fill-rule="evenodd" clip-rule="evenodd" d="M82.0156 18.3328C82.0156 18.6808 82.2227 18.8548 82.637 18.8548H88.6273C89.0416 18.8548 89.2487 18.6808 89.2487 18.3328V18.2334C89.2487 18.018 89.0582 17.6865 88.677 17.2391C88.2959 16.7751 88.1054 16.3194 88.1054 15.872V0.709781C88.1054 0.428078 87.9894 0.220943 87.7574 0.0883767C87.5419 -0.0441887 87.252 -0.0276177 86.8874 0.13809L82.637 2.22601C82.2227 2.42486 82.0156 2.63199 82.0156 2.84741V2.94683C82.0156 3.12911 82.1813 3.44396 82.5127 3.89137C82.8607 4.32221 83.0347 4.76133 83.0347 5.20875V15.872C83.0347 16.3194 82.8607 16.7751 82.5127 17.2391C82.1813 17.6865 82.0156 18.018 82.0156 18.2334V18.3328ZM80.1395 15.9466C80.1892 16.3609 80.2804 16.7006 80.4129 16.9657C80.5621 17.2143 80.7029 17.38 80.8355 17.4628C80.9681 17.5291 81.0841 17.6203 81.1835 17.7362C81.2995 17.8357 81.3575 17.96 81.3575 18.1091C81.3575 18.7056 80.3218 19.0039 78.2504 19.0039C76.7425 19.0039 75.8891 18.6394 75.6902 17.9102C75.044 18.7056 74.0249 19.1033 72.6329 19.1033C71.241 19.1033 70.1059 18.7885 69.2276 18.1588C68.3494 17.5125 67.9102 16.568 67.9102 15.3252C67.9102 14.1155 68.3411 13.1793 69.2028 12.5165C70.0644 11.8371 71.1167 11.4974 72.3595 11.4974C73.304 11.4974 74.0994 11.6796 74.7457 12.0442C74.5469 10.1385 74.3811 9.01174 74.2486 8.66375C74.0663 8.19977 73.7515 7.96778 73.304 7.96778C72.9892 7.96778 72.7323 8.15006 72.5335 8.51462C72.3346 8.8626 72.1855 9.2603 72.0861 9.70771C72.0032 10.1385 71.7961 10.5362 71.4647 10.9008C71.1333 11.2488 70.6941 11.4228 70.1473 11.4228C69.5673 11.4228 69.0951 11.2571 68.7305 10.9257C68.3659 10.5942 68.1837 10.1634 68.1837 9.63314C68.1837 8.93717 68.4405 8.35719 68.9542 7.89321C69.4845 7.42923 70.1142 7.11438 70.8433 6.94868C71.589 6.7664 72.4092 6.67526 73.304 6.67526C75.0108 6.67526 76.4276 7.13096 77.5545 8.04235C78.6978 8.93717 79.369 10.1385 79.5678 11.6465L80.1395 15.9466ZM74.2237 17.7114C74.522 17.7114 74.754 17.5374 74.9197 17.1894C75.0854 16.8414 75.1517 16.4769 75.1185 16.0957L75.0191 14.9275C74.8534 13.6018 74.4474 12.939 73.8012 12.939C73.5526 12.939 73.3455 13.0716 73.1798 13.3367C73.0306 13.6018 72.9561 13.9415 72.9561 14.3558C72.9561 15.3003 73.0638 16.0957 73.2792 16.742C73.5112 17.3883 73.826 17.7114 74.2237 17.7114ZM29.5877 4.91878C29.0077 5.44905 28.2537 5.71419 27.3258 5.71419C26.3978 5.71419 25.6355 5.44905 25.039 4.91878C24.459 4.3885 24.169 3.73395 24.169 2.95511C24.169 2.17627 24.459 1.53 25.039 1.0163C25.6355 0.486026 26.3978 0.22089 27.3258 0.22089C28.2537 0.22089 29.0077 0.486026 29.5877 1.0163C30.1842 1.53 30.4825 2.17627 30.4825 2.95511C30.4825 3.73395 30.1842 4.3885 29.5877 4.91878ZM23.7216 18.3413C23.7216 18.6893 23.9287 18.8633 24.343 18.8633H30.3334C30.7476 18.8633 30.9548 18.6893 30.9548 18.3413V18.2419C30.9548 18.0265 30.7642 17.695 30.3831 17.2476C30.0019 16.7836 29.8114 16.3279 29.8114 15.8805V7.37957C29.8114 7.09787 29.6954 6.89073 29.4634 6.75816C29.248 6.62559 28.958 6.64216 28.5934 6.80787L24.343 8.89582C23.9287 9.09468 23.7216 9.30181 23.7216 9.51724V9.61666C23.7216 9.79894 23.8873 10.1138 24.2187 10.5612C24.5667 10.9921 24.7407 11.4312 24.7407 11.8786V15.8805C24.7407 16.3279 24.5667 16.7836 24.2187 17.2476C23.8873 17.695 23.7216 18.0265 23.7216 18.2419V18.3413ZM21.8199 15.8805C21.853 16.3114 22.0105 16.7588 22.2922 17.2228C22.5739 17.6702 22.7147 18.0099 22.7147 18.2419V18.3413C22.7147 18.6893 22.5076 18.8633 22.0933 18.8633H16.6001C16.1858 18.8633 15.9787 18.6893 15.9787 18.3413V18.2419C15.9787 18.0265 16.1361 17.6951 16.451 17.2477C16.7658 16.7837 16.9066 16.328 16.8735 15.8805L16.6249 11.5804C16.5587 10.437 16.4261 9.63327 16.2272 9.16928C16.0284 8.70529 15.7135 8.4733 15.2827 8.4733C14.5039 8.4733 14.1145 9.17756 14.1145 10.5861C14.1642 10.901 14.189 11.2407 14.189 11.6052V15.8805C14.189 16.328 14.3382 16.7837 14.6364 17.2477C14.9347 17.6951 15.0839 18.0265 15.0839 18.2419V18.3413C15.0839 18.6893 14.8767 18.8633 14.4625 18.8633H8.96922C8.55495 18.8633 8.34781 18.6893 8.34781 18.3413V18.2419C8.34781 18.0265 8.49695 17.6951 8.79522 17.2477C9.0935 16.7837 9.24264 16.328 9.24264 15.8805V11.2572C9.24264 9.40127 8.79523 8.4733 7.9004 8.4733C7.03872 8.4733 6.60787 9.16099 6.60787 10.5364V15.8805C6.60787 16.328 6.79844 16.7837 7.17957 17.2477C7.5607 17.6951 7.75126 18.0265 7.75126 18.2419V18.3413C7.75126 18.6893 7.54413 18.8633 7.12986 18.8633H1.1395C0.725229 18.8633 0.518094 18.6893 0.518094 18.3413V18.2419C0.518094 18.0265 0.708658 17.6951 1.08979 17.2477C1.47092 16.7837 1.66148 16.328 1.66148 15.8805V11.6798C1.66148 11.3318 1.54549 11.0335 1.31349 10.785C1.0815 10.5198 0.84951 10.2878 0.617519 10.089C0.385527 9.87355 0.269531 9.66641 0.269531 9.46756V9.36813C0.269531 9.11957 0.484952 8.89586 0.915794 8.69701L5.1165 6.7582C5.43135 6.60906 5.67991 6.60906 5.86219 6.7582C6.04447 6.90733 6.13561 7.12276 6.13561 7.40447V8.07559C6.91444 7.13104 7.97497 6.65877 9.31721 6.65877C11.14 6.65877 12.4822 7.28847 13.3439 8.54787C14.0565 7.28847 15.2579 6.65877 16.9481 6.65877C18.1412 6.65877 19.1603 7.04819 20.0054 7.82703C20.8505 8.60586 21.3476 9.91498 21.4968 11.7544L21.8199 15.8805ZM60.7369 6.67529C61.698 6.67529 62.6094 6.88243 63.4711 7.2967C64.3494 7.6944 65.0951 8.36551 65.7082 9.31005C66.3213 10.2546 66.6279 11.3814 66.6279 12.6905C66.6279 14.6127 66.0479 16.1621 64.8879 17.3386C63.728 18.5151 62.3443 19.1034 60.7369 19.1034C59.8421 19.1034 59.0964 18.9294 58.4999 18.5814V21.0173C58.4999 21.4647 58.6904 21.9121 59.0716 22.3595C59.4527 22.8235 59.6433 23.1632 59.6433 23.3786V23.4781C59.6433 23.826 59.4361 24 59.0219 24H53.1806C52.7664 24 52.5592 23.826 52.5592 23.4781V23.3786C52.5592 23.1632 52.7249 22.8235 53.0564 22.3595C53.4043 21.9121 53.5783 21.4647 53.5783 21.0173V11.6465C53.5783 11.2323 53.3629 10.8428 52.9321 10.4783C52.5178 10.1137 52.3107 9.81545 52.3107 9.58346V9.43433C52.3107 9.13605 52.5178 8.8792 52.9321 8.66378L56.6108 6.84929C57.0251 6.68358 57.3151 6.65872 57.4808 6.77472C57.663 6.87414 57.7542 7.07299 57.7542 7.37126V7.86839C58.3673 7.07299 59.3616 6.67529 60.7369 6.67529ZM60.3144 17.786C61.2423 17.786 61.7063 16.9243 61.7063 15.201C61.7063 14.2564 61.6483 13.2787 61.5323 12.2679C61.4329 11.2571 61.2092 10.296 60.8612 9.38461C60.5132 8.45665 60.0824 7.99267 59.5687 7.99267C58.8561 7.99267 58.4999 8.5395 58.4999 9.63317V14.2564C58.4999 15.3169 58.6822 16.1703 59.0467 16.8166C59.4113 17.4629 59.8338 17.786 60.3144 17.786ZM42.8084 15.576L43.7709 14.4951L43.7826 14.4814C44.5641 13.5654 44.5641 12.2143 43.7826 11.2982L43.7709 11.2845L42.8091 10.2044L45.4895 7.19422C45.813 6.83091 46.31 6.67388 46.784 6.78522L50.2016 8.42474C50.688 8.53899 50.8777 9.12897 50.5487 9.50445L47.5734 12.7941C47.4983 12.8785 47.4983 12.9791 47.5734 13.0634L50.5357 16.2753C50.8691 16.6499 50.6806 17.2442 50.192 17.3589L46.784 18.996C46.31 19.1074 45.8131 18.9503 45.4896 18.587L42.8084 15.576ZM42.4901 13.3789L37.8525 18.587C37.529 18.9503 37.032 19.1074 36.558 18.996L33.1404 17.3565C32.654 17.2423 32.4644 16.6523 32.7933 16.2768L35.7687 12.9872C35.8438 12.9028 35.8438 12.8022 35.7687 12.7178L32.8063 9.50594C32.4729 9.13133 32.6614 8.5371 33.1501 8.42234L36.558 6.78521C37.032 6.67389 37.529 6.83092 37.8525 7.19422L42.4901 12.4024C42.7294 12.6828 42.7294 13.0984 42.4901 13.3789Z" fill="#111111"/>
</svg>
